<svg width="64" height="64" viewBox="0 0 64 64" fill="none" xmlns="http://www.w3.org/2000/svg">
<circle cx="32" cy="32" r="32" fill="#E63C01"/>
<path d="M48.8289 29.2477C48.5877 28.6267 48.1295 28.1504 47.5325 27.9152C47.237 27.7946 46.9295 27.7343 46.6099 27.7343C45.9768 27.7343 45.3678 27.9755 44.8914 28.3855L16.8346 17.0447C16.6054 16.9542 16.3522 17.0025 16.1773 17.1773C16.0025 17.3521 15.9542 17.6054 16.0447 17.8345L27.3928 45.8941C26.7718 46.6176 26.5547 47.6245 26.9165 48.5289C27.2783 49.4212 28.1767 50 29.2078 50C29.6299 50 30.0641 49.8975 30.456 49.7106C38.3973 45.8821 44.8794 39.4008 48.7083 31.4604C49.052 30.755 49.0942 29.947 48.8229 29.2537L48.8289 29.2477ZM17.6968 18.6967L44.1498 29.3924C40.8213 36.2294 35.2316 41.8184 28.3938 45.1465L17.6968 18.6967ZM47.629 30.9358C43.9146 38.629 37.6315 44.9114 29.9374 48.6254C29.1897 48.9811 28.2913 48.7158 28.038 48.0827C27.8149 47.522 28.026 46.8709 28.5144 46.479C28.5144 46.479 28.5264 46.4669 28.5325 46.4609C28.6169 46.3946 28.7073 46.3343 28.8098 46.286C35.9793 42.8253 41.8343 36.977 45.2894 29.8084C45.5427 29.2838 46.0612 28.9462 46.6099 28.9462C46.7728 28.9462 46.9295 28.9764 47.0803 29.0366C47.3637 29.1512 47.5807 29.3803 47.7013 29.6878C47.8521 30.0737 47.8219 30.5258 47.629 30.9358ZM30.6731 41.1371C32.4036 41.1371 33.8086 39.7324 33.8086 38.002C33.8086 36.2716 32.4036 34.8668 30.6731 34.8668C28.9425 34.8668 27.5375 36.2716 27.5375 38.002C27.5375 39.7324 28.9425 41.1371 30.6731 41.1371ZM30.6731 36.0727C31.7343 36.0727 32.6026 36.9409 32.6026 38.002C32.6026 39.0631 31.7343 39.9313 30.6731 39.9313C29.6118 39.9313 28.7435 39.0631 28.7435 38.002C28.7435 36.9409 29.6118 36.0727 30.6731 36.0727ZM35.7381 33.5404C37.4687 33.5404 38.8737 32.1356 38.8737 30.4053C38.8737 28.6749 37.4687 27.2701 35.7381 27.2701C34.0076 27.2701 32.6026 28.6749 32.6026 30.4053C32.6026 32.1356 34.0076 33.5404 35.7381 33.5404ZM35.7381 28.4759C36.7994 28.4759 37.6677 29.3441 37.6677 30.4053C37.6677 31.4664 36.7994 32.3346 35.7381 32.3346C34.6769 32.3346 33.8086 31.4664 33.8086 30.4053C33.8086 29.3441 34.6769 28.4759 35.7381 28.4759ZM30.0098 27.873C30.0098 26.1427 28.6048 24.7379 26.8743 24.7379C25.1437 24.7379 23.7387 26.1427 23.7387 27.873C23.7387 29.6034 25.1437 31.0082 26.8743 31.0082C28.6048 31.0082 30.0098 29.6034 30.0098 27.873ZM26.8743 29.8023C25.813 29.8023 24.9447 28.9341 24.9447 27.873C24.9447 26.8119 25.813 25.9437 26.8743 25.9437C27.9355 25.9437 28.8038 26.8119 28.8038 27.873C28.8038 28.9341 27.9355 29.8023 26.8743 29.8023ZM21.6585 21.8981C21.1881 22.5372 21.0977 23.8697 21.357 24.5148C21.4534 24.7499 21.6765 24.8946 21.9177 24.8946C21.9901 24.8946 22.0685 24.8826 22.1408 24.8524C22.4484 24.7258 22.5991 24.3761 22.4725 24.0686C22.3459 23.7611 22.4423 22.8628 22.6232 22.6216C22.8222 22.3563 22.7679 21.9765 22.4966 21.7775C22.2253 21.5786 21.8514 21.6328 21.6524 21.9042L21.6585 21.8981ZM27.8933 33.8961C28.0742 33.8961 28.2491 33.8117 28.3576 33.6429C28.5325 33.5404 29.3164 33.6188 29.8168 33.8178C30.1244 33.9444 30.4741 33.7936 30.6007 33.4862C30.7273 33.1787 30.5766 32.829 30.2691 32.7024C30.2449 32.6963 28.1044 31.8764 27.3989 32.9194C27.2119 33.1968 27.2662 33.5887 27.5375 33.7756C27.6461 33.8479 27.7667 33.8841 27.8873 33.8841L27.8933 33.8961ZM38.0898 34.7824L37.9752 34.8246C36.9682 35.1743 36.3713 35.4275 36.112 35.7833C35.913 36.0485 35.9612 36.4404 36.2326 36.6394C36.3411 36.7178 36.4738 36.76 36.5944 36.76C36.7753 36.76 36.9501 36.6816 37.0647 36.5248C37.1853 36.4103 37.6194 36.2234 38.3732 35.9641L38.4877 35.9219C38.8013 35.8134 38.9701 35.4697 38.8556 35.1562C38.747 34.8427 38.4033 34.6739 38.0898 34.7824Z" fill="white"/>
</svg>
