<svg width="64" height="64" viewBox="0 0 64 64" fill="none" xmlns="http://www.w3.org/2000/svg">
<circle cx="32" cy="32" r="32" fill="#E63C01"/>
<path d="M16 27.4038V25.9492L39.9999 19.4038C44.5454 20.6329 47.2727 22.902 47.9999 26.6765V27.4038" stroke="white" stroke-width="2" stroke-miterlimit="10"/>
<path d="M44.109 27.4038C44.269 27.7384 44.3636 28.102 44.3636 28.4947C44.3636 29.8983 43.2218 31.0402 41.8181 31.0402C40.4145 31.0402 39.2727 29.8983 39.2727 28.4947C39.2727 28.102 39.3672 27.7384 39.5272 27.4038H16V42.6765H21.1345C20.6618 42.211 20.3636 41.571 20.3636 40.8583C20.3636 39.4547 21.5054 38.3129 22.9091 38.3129C24.3127 38.3129 25.4545 39.4547 25.4545 40.8583C25.4545 41.571 25.1563 42.211 24.6836 42.6765H47.9999V27.4038H44.109Z" stroke="white" stroke-width="2" stroke-miterlimit="10"/>
<path d="M30.1822 36.1309C31.588 36.1309 32.7276 34.9913 32.7276 33.5855C32.7276 32.1797 31.588 31.04 30.1822 31.04C28.7764 31.04 27.6367 32.1797 27.6367 33.5855C27.6367 34.9913 28.7764 36.1309 30.1822 36.1309Z" stroke="white" stroke-width="2" stroke-miterlimit="10"/>
<path d="M39.2726 39.7674C40.4776 39.7674 41.4544 38.7906 41.4544 37.5856C41.4544 36.3806 40.4776 35.4038 39.2726 35.4038C38.0677 35.4038 37.0908 36.3806 37.0908 37.5856C37.0908 38.7906 38.0677 39.7674 39.2726 39.7674Z" stroke="white" stroke-width="2" stroke-miterlimit="10"/>
</svg>
