<svg width="64" height="64" viewBox="0 0 64 64" fill="none" xmlns="http://www.w3.org/2000/svg">
<circle cx="32" cy="32" r="32" fill="#E63C01"/>
<path d="M48.8639 46.3457L15.2403 37.1473L18.9882 21.3551L8.06836 17.1879L8.51938 16L20.4747 20.5674L20.3667 21.0184L20.9766 31.4492L49.3085 45.1641L48.8639 46.3521V46.3457ZM16.7585 36.2453L42.5495 43.3029L19.7505 32.2687L19.344 25.3254L16.7522 36.2453H16.7585Z" fill="white"/>
<path d="M54.0036 32.8026L52.8156 32.3515L53.0951 31.621L36.0833 19.1892C32.2019 18.8335 29.6546 19.8245 28.0982 22.3019L27.8949 22.8355L26.707 22.3845L26.9865 21.6794C28.8288 18.7064 31.9033 17.4868 36.3818 17.9378L36.5533 17.9569L54.6324 31.1573L54.0036 32.7962V32.8026Z" fill="white"/>
<path d="M27.2997 22.6109L22.543 35.0742L48.6565 45.0408L53.4133 32.5775L27.2997 22.6109Z" fill="#E63C01"/>
<path d="M49.0226 45.8634L21.7197 35.4454L26.9287 21.7939L54.2316 32.212L49.0226 45.8634ZM23.3587 34.7085L48.2857 44.2181L52.5863 32.9425L27.6656 23.4329L23.365 34.7085H23.3587Z" fill="white"/>
<path d="M25.8613 36.3406L24.667 35.896L29.3106 23.388C29.3805 23.2038 31.0512 19.1318 38.3629 19.4177L38.3121 20.6882C31.9469 20.4277 30.5494 23.7056 30.4922 23.8454L25.8549 36.3406H25.8613Z" fill="white"/>
<path d="M35.2827 26.2846C34.2345 26.2846 33.377 25.427 33.377 24.3789C33.377 23.3307 34.2345 22.4731 35.2827 22.4731C36.3308 22.4731 37.1884 23.3307 37.1884 24.3789C37.1884 25.427 36.3308 26.2846 35.2827 26.2846ZM35.2827 23.7436C34.9333 23.7436 34.6474 24.0295 34.6474 24.3789C34.6474 24.7283 34.9333 25.0141 35.2827 25.0141C35.6321 25.0141 35.9179 24.7283 35.9179 24.3789C35.9179 24.0295 35.6321 23.7436 35.2827 23.7436Z" fill="white"/>
<path d="M43.6992 29.1435C42.2953 29.1435 41.1582 28.0064 41.1582 26.6025C41.1582 25.1986 42.2953 24.0615 43.6992 24.0615C45.1031 24.0615 46.2402 25.1986 46.2402 26.6025C46.2402 28.0064 45.1031 29.1435 43.6992 29.1435ZM43.6992 25.332C43.0004 25.332 42.4287 25.9037 42.4287 26.6025C42.4287 27.3013 43.0004 27.873 43.6992 27.873C44.398 27.873 44.9697 27.3013 44.9697 26.6025C44.9697 25.9037 44.398 25.332 43.6992 25.332Z" fill="white"/>
<path d="M28.5826 28.6992L28.1631 29.8984L51.3564 38.0115L51.7758 36.8123L28.5826 28.6992Z" fill="white"/>
<path d="M19.7762 31.6476L15.4092 36.4858L16.3523 37.3371L20.7194 32.4989L19.7762 31.6476Z" fill="white"/>
</svg>
