<svg width="64" height="64" viewBox="0 0 64 64" fill="none" xmlns="http://www.w3.org/2000/svg">
<circle cx="32" cy="32" r="32" fill="#E63C01"/>
<mask id="path-2-inside-1_2_345" fill="white">
<path d="M26.9848 16.9641C26.7584 16.9641 26.5194 16.9138 26.3055 16.9704C20.4186 18.461 16.4499 22.0712 14.6323 27.8575C14.0851 29.5997 14.0159 31.4928 13.7391 33.3231C13.7014 33.5684 13.7391 33.8325 13.6888 34.0778C13.6008 34.5369 13.28 34.6502 12.9718 34.3042C12.7706 34.0778 12.6196 33.7633 12.5756 33.4614C11.7265 28.2034 13.4121 23.7568 17.0348 19.9831C20.0223 16.8572 23.8023 15.0836 27.9345 14.0961C30.2805 13.5364 32.7019 13.1464 35.1108 13.0206C38.0669 12.8634 40.9349 13.6181 43.6331 14.8446C47.5891 16.6371 50.0169 19.8384 51.6899 23.7316C53.149 27.1279 53.4635 30.6752 53.1302 34.2979C52.9981 35.7068 52.7654 37.1093 52.4572 38.493C51.9226 40.8956 50.671 42.9334 49.0735 44.7762C47.3816 46.726 45.4381 48.399 43.2997 49.8267C42.6267 50.2795 41.8406 50.5688 41.0795 50.877C40.7839 50.9965 40.4317 50.9651 40.1047 50.9965L39.9914 50.7827C40.2053 50.5877 40.4003 50.3676 40.633 50.1978C42.1299 49.0719 43.74 48.0719 45.1174 46.814C48.5829 43.6567 50.2433 39.5874 50.6458 34.9709C50.9352 31.5998 50.6018 28.2978 49.4257 25.1027C48.4634 22.4926 46.8973 20.3542 44.5639 18.7944C42.2494 17.2534 39.8908 15.8006 37.0543 15.4295C36.6266 15.3729 36.1863 15.3352 35.7523 15.3477C35.5825 15.3477 35.4127 15.5113 35.2429 15.5993C35.3561 15.7817 35.4316 16.0522 35.5888 16.1213C35.9159 16.266 36.2869 16.3037 36.6454 16.3729C37.3624 16.5113 38.1172 16.5302 38.7902 16.7817C42.4003 18.134 45.457 20.1969 47.3942 23.6624C48.4005 25.4612 48.7967 27.4298 49.0043 29.4362C49.2873 32.1532 49.5263 34.8954 48.715 37.5496C46.5702 44.5561 41.9538 49.0908 34.8844 51.0657C30.3245 52.3425 25.7961 52.3613 21.3809 50.4242C18.6953 49.248 16.626 47.3423 15.1165 44.858C14.7329 44.229 14.5442 43.4743 14.3429 42.751C14.28 42.5246 14.4876 42.229 14.5694 41.9648C14.7958 42.0906 15.0788 42.1661 15.236 42.3548C16.0159 43.2793 16.7392 44.2605 17.5317 45.1787C20.1041 48.1725 23.4878 49.6506 27.2993 50.2795C27.6326 50.3361 27.9911 50.355 28.3245 50.311C28.532 50.2858 28.727 50.1223 28.9282 50.0216C28.7521 49.9084 28.5949 49.7386 28.4062 49.6946C27.8527 49.5625 27.2804 49.4996 26.7206 49.3801C23.3369 48.6631 20.7079 46.6631 18.3116 44.3171C16.7329 42.7699 15.67 40.8579 15.3115 38.7069C14.7518 35.3357 14.5002 31.8954 15.3933 28.5494C16.7833 23.3542 20.1922 19.9265 25.1797 18.0082C25.8087 17.7692 26.4125 17.4862 27.0351 17.222L26.9785 16.9516L26.9848 16.9641ZM40.199 27.3984C41.3877 27.3984 42.5827 27.4235 43.7714 27.3795C44.067 27.3669 44.4758 27.2097 44.6205 26.9833C44.9664 26.4612 44.4947 26.1594 44.1111 25.9895C42.6079 25.3291 41.1298 24.5492 39.5575 24.1216C38.1109 23.7316 37.3373 23.0649 37.1863 21.5555C37.092 20.6435 36.8844 20.5743 35.985 20.7504C34.4819 21.046 32.9975 21.4926 31.4818 21.6372C29.5572 21.8196 28.1987 22.6058 27.3559 24.3668C27.1672 24.7631 26.664 25.0587 26.2489 25.2851C24.3558 26.304 22.4375 27.2537 20.5507 28.2789C20.211 28.4613 19.7204 28.9582 19.7833 29.1657C19.9594 29.7569 20.5632 29.4613 20.9721 29.3984C27.3559 28.4865 33.7271 27.4361 40.2053 27.3921L40.199 27.3984ZM35.6328 33.6942C35.8907 33.4174 35.9976 33.3042 36.1045 33.1973C36.658 32.6187 37.2429 32.0715 37.7524 31.4551C38.2115 30.8953 37.9977 30.3922 37.287 30.2727C37.0668 30.2349 36.8341 30.2601 36.6077 30.2915C35.8844 30.3922 35.1674 30.5305 34.4378 30.606C34.0856 30.6438 33.702 30.5746 33.6831 31.0651C33.6579 31.562 34.0102 31.7507 34.4315 31.7759C34.897 31.8073 35.3624 31.7822 35.8278 31.7822C35.2932 32.2287 34.7146 32.6753 34.1925 33.1721C33.8655 33.4803 33.5573 33.8388 33.3435 34.2288C33.0856 34.7005 33.3183 34.9646 33.8529 34.908C34.1925 34.8703 34.5322 34.82 34.8718 34.8074C36.0668 34.7571 37.3184 34.9772 38.331 34.0652C38.3751 34.0275 38.4631 34.0212 38.526 34.0338C39.3436 34.1847 39.9726 33.7696 40.633 33.3985C40.8468 33.279 41.155 33.3357 41.4192 33.3105C41.9286 33.2665 42.4443 33.2476 42.9475 33.1595C43.0859 33.1344 43.1865 32.9205 43.306 32.7948C43.1613 32.669 43.0293 32.4488 42.872 32.4363C42.1802 32.3608 42.1802 31.9897 42.3877 31.474C42.4821 31.2413 42.5953 30.9834 42.5576 30.7507C42.5324 30.562 42.3186 30.2538 42.1676 30.2412C40.0732 30.0777 37.6329 31.5935 37.7901 33.7004H35.6328V33.6942ZM30.8591 39.3358C31.0038 38.688 31.161 38.0716 31.2679 37.449C31.2994 37.254 31.1862 37.0339 31.1421 36.8263C30.9283 36.9207 30.6201 36.9521 30.5195 37.1093C30.1421 37.732 29.7899 38.3798 29.5006 39.0465C29.0855 40.0025 28.7333 40.2415 27.5446 40.1786C27.7899 39.3421 28.054 38.5245 28.2616 37.688C28.3119 37.4804 28.1735 37.2288 28.1232 37.0024C27.9094 37.0968 27.6137 37.1408 27.5005 37.3043C27.0288 38.0024 26.5382 38.7069 26.1923 39.4742C25.8527 40.2163 25.5382 40.8642 24.5948 40.8767C24.469 40.8767 24.3369 40.9648 24.2174 41.0403C23.7583 41.3296 23.7583 41.7258 24.23 41.99C24.4627 42.1158 24.7332 42.185 25.0162 42.2919C24.9407 42.6252 24.8464 42.9271 24.8023 43.2416C24.7395 43.6693 24.6577 44.1095 24.708 44.5309C24.7332 44.7762 24.9596 45.1599 25.1546 45.1976C25.4061 45.2479 25.7898 45.0907 25.9722 44.8894C26.2049 44.6316 26.3244 44.2542 26.4376 43.9146C26.6011 43.4177 26.6955 42.8957 26.8464 42.3925C26.903 42.2101 27.0037 41.9648 27.1483 41.9019C27.6389 41.6881 28.1609 41.5434 28.7459 41.3485C28.6955 41.7573 28.6326 42.0717 28.6264 42.3862C28.6201 42.8139 28.5635 43.3296 29.1169 43.4617C29.6767 43.6001 29.9786 43.1913 30.1232 42.7384C30.2931 42.2227 30.4126 41.6755 30.4818 41.1346C30.5446 40.6189 30.7208 40.2415 31.1988 39.9836C31.4 39.8767 31.5258 39.6251 31.8151 39.2918L30.8465 39.3484L30.8591 39.3358ZM22.4061 32.1721C21.9595 33.0841 21.4501 33.9835 21.079 34.9395C20.6953 35.9143 20.4312 36.9332 20.1544 37.9458C20.0538 38.3106 20.0475 38.7194 20.0601 39.1031C20.0664 39.2729 20.2173 39.5622 20.3368 39.5811C20.5192 39.6063 20.8085 39.4993 20.9092 39.3547C21.1985 38.9207 21.4438 38.449 21.6513 37.971C22.0224 37.1219 22.3494 36.254 22.6891 35.4049C24.2489 35.7005 26.1357 34.6942 26.7144 33.3168C27.1295 32.3168 26.7961 31.2727 25.8653 30.6878C24.8778 30.0651 23.0476 30.172 22.1859 30.9582C21.9847 31.1406 21.8526 31.4928 21.8463 31.7759C21.8463 31.9142 22.2111 32.0526 22.4061 32.1847V32.1721ZM31.551 32.757C30.7962 33.474 30.161 34.0589 29.5446 34.669C29.2239 34.9898 28.8905 35.3231 28.6578 35.7068C28.532 35.9143 28.5257 36.3106 28.6452 36.5118C28.7333 36.6628 29.1232 36.6879 29.3685 36.6628C29.7081 36.6376 30.0289 36.4615 30.3685 36.4364C31.7334 36.3357 33.1108 36.3232 34.4693 36.1659C35.1297 36.0904 35.7712 35.8011 36.4002 35.5558C36.5259 35.5055 36.5574 35.2288 36.6329 35.059C36.4693 35.0338 36.3121 34.9772 36.1486 34.9772C34.551 35.0087 32.9535 35.0527 31.356 35.0904L31.3057 34.8829C31.5698 34.6061 31.8466 34.3357 32.0981 34.0464C32.5321 33.5495 32.985 33.0589 33.356 32.518C33.5007 32.3105 33.5699 31.8954 33.4504 31.713C33.3372 31.5369 32.9409 31.4677 32.6768 31.4865C31.79 31.5369 30.8969 31.6123 30.0163 31.7444C29.7836 31.7759 29.5824 32.0274 29.3622 32.1784C29.5572 32.3671 29.727 32.6815 29.9471 32.7256C30.4063 32.8136 30.8969 32.7507 31.5384 32.7507L31.551 32.757ZM36.9536 42.3233L37.18 42.3799C37.3058 42.1598 37.4694 41.9522 37.5511 41.7132C37.8404 40.9459 38.1612 40.1786 38.3499 39.3861C38.5889 38.3672 39.1487 37.7823 40.1738 37.5433C40.721 37.4112 41.2368 37.1282 41.7525 36.8955C41.9412 36.8074 42.111 36.6691 42.2871 36.5496L42.2053 36.2666L39.4694 36.7571C39.5638 36.5056 39.6958 36.3169 39.6958 36.1282C39.6958 35.8829 39.6015 35.6376 39.5512 35.3923C39.3185 35.4804 39.0229 35.5055 38.8719 35.6628C38.57 35.9961 38.3751 36.4301 38.0732 36.7697C37.9033 36.9647 37.6329 37.1219 37.375 37.1911C36.9662 37.3043 36.3058 37.0087 36.2492 37.6188C36.224 37.8955 36.7964 38.2289 37.1926 38.6314C36.9222 39.7132 36.4064 40.9962 36.9473 42.317L36.9536 42.3233ZM33.4252 40.2352L33.2114 40.0906C33.1108 39.4805 33.5321 38.6754 32.6768 38.361C32.3938 38.254 31.9975 38.4553 31.6579 38.5119L31.8277 38.7069C31.8277 39.0276 31.8529 39.3547 31.8214 39.6692C31.79 39.9145 31.6076 40.1535 31.6264 40.3862C31.6516 40.795 31.6516 41.3736 31.8969 41.5497C32.1862 41.751 32.79 41.7258 33.1422 41.5623C33.6579 41.317 34.073 40.8642 34.4944 40.5245C34.7649 40.8264 35.0165 41.1849 35.3435 41.4365C35.6203 41.6504 35.9096 41.6126 35.9347 41.1409C35.9788 40.2541 36.0605 39.3673 36.0794 38.4867C36.0794 38.2289 35.9284 37.9647 35.8467 37.7068C35.6203 37.8641 35.3498 37.9836 35.1737 38.1848C34.5762 38.8515 34.0039 39.5497 33.4252 40.2352ZM29.1106 32.6249L28.6704 31.8136C28.4628 31.9834 28.2175 32.1344 28.0477 32.3356C27.7458 32.7067 27.4502 33.0904 27.2301 33.5118C26.9408 34.0715 26.6263 34.6502 26.5068 35.2539C26.4313 35.6439 26.6137 36.1471 26.8339 36.5056C27.0666 36.8829 27.5068 36.7446 27.6704 36.3357C27.9219 35.7068 28.205 35.0904 28.4502 34.4552C28.683 33.864 28.8779 33.2665 29.1106 32.6187V32.6249ZM28.1672 30.9079C28.2112 30.9771 28.2804 31.2413 28.4188 31.2853C28.6264 31.3545 28.9911 31.3545 29.0981 31.2287C29.6453 30.5683 30.1421 29.8701 30.6264 29.1594C30.6641 29.1028 30.488 28.7758 30.3811 28.7632C29.6138 28.6563 28.1546 30.0085 28.1672 30.9079Z"/>
</mask>
<path d="M26.9848 16.9641C26.7584 16.9641 26.5194 16.9138 26.3055 16.9704C20.4186 18.461 16.4499 22.0712 14.6323 27.8575C14.0851 29.5997 14.0159 31.4928 13.7391 33.3231C13.7014 33.5684 13.7391 33.8325 13.6888 34.0778C13.6008 34.5369 13.28 34.6502 12.9718 34.3042C12.7706 34.0778 12.6196 33.7633 12.5756 33.4614C11.7265 28.2034 13.4121 23.7568 17.0348 19.9831C20.0223 16.8572 23.8023 15.0836 27.9345 14.0961C30.2805 13.5364 32.7019 13.1464 35.1108 13.0206C38.0669 12.8634 40.9349 13.6181 43.6331 14.8446C47.5891 16.6371 50.0169 19.8384 51.6899 23.7316C53.149 27.1279 53.4635 30.6752 53.1302 34.2979C52.9981 35.7068 52.7654 37.1093 52.4572 38.493C51.9226 40.8956 50.671 42.9334 49.0735 44.7762C47.3816 46.726 45.4381 48.399 43.2997 49.8267C42.6267 50.2795 41.8406 50.5688 41.0795 50.877C40.7839 50.9965 40.4317 50.9651 40.1047 50.9965L39.9914 50.7827C40.2053 50.5877 40.4003 50.3676 40.633 50.1978C42.1299 49.0719 43.74 48.0719 45.1174 46.814C48.5829 43.6567 50.2433 39.5874 50.6458 34.9709C50.9352 31.5998 50.6018 28.2978 49.4257 25.1027C48.4634 22.4926 46.8973 20.3542 44.5639 18.7944C42.2494 17.2534 39.8908 15.8006 37.0543 15.4295C36.6266 15.3729 36.1863 15.3352 35.7523 15.3477C35.5825 15.3477 35.4127 15.5113 35.2429 15.5993C35.3561 15.7817 35.4316 16.0522 35.5888 16.1213C35.9159 16.266 36.2869 16.3037 36.6454 16.3729C37.3624 16.5113 38.1172 16.5302 38.7902 16.7817C42.4003 18.134 45.457 20.1969 47.3942 23.6624C48.4005 25.4612 48.7967 27.4298 49.0043 29.4362C49.2873 32.1532 49.5263 34.8954 48.715 37.5496C46.5702 44.5561 41.9538 49.0908 34.8844 51.0657C30.3245 52.3425 25.7961 52.3613 21.3809 50.4242C18.6953 49.248 16.626 47.3423 15.1165 44.858C14.7329 44.229 14.5442 43.4743 14.3429 42.751C14.28 42.5246 14.4876 42.229 14.5694 41.9648C14.7958 42.0906 15.0788 42.1661 15.236 42.3548C16.0159 43.2793 16.7392 44.2605 17.5317 45.1787C20.1041 48.1725 23.4878 49.6506 27.2993 50.2795C27.6326 50.3361 27.9911 50.355 28.3245 50.311C28.532 50.2858 28.727 50.1223 28.9282 50.0216C28.7521 49.9084 28.5949 49.7386 28.4062 49.6946C27.8527 49.5625 27.2804 49.4996 26.7206 49.3801C23.3369 48.6631 20.7079 46.6631 18.3116 44.3171C16.7329 42.7699 15.67 40.8579 15.3115 38.7069C14.7518 35.3357 14.5002 31.8954 15.3933 28.5494C16.7833 23.3542 20.1922 19.9265 25.1797 18.0082C25.8087 17.7692 26.4125 17.4862 27.0351 17.222L26.9785 16.9516L26.9848 16.9641ZM40.199 27.3984C41.3877 27.3984 42.5827 27.4235 43.7714 27.3795C44.067 27.3669 44.4758 27.2097 44.6205 26.9833C44.9664 26.4612 44.4947 26.1594 44.1111 25.9895C42.6079 25.3291 41.1298 24.5492 39.5575 24.1216C38.1109 23.7316 37.3373 23.0649 37.1863 21.5555C37.092 20.6435 36.8844 20.5743 35.985 20.7504C34.4819 21.046 32.9975 21.4926 31.4818 21.6372C29.5572 21.8196 28.1987 22.6058 27.3559 24.3668C27.1672 24.7631 26.664 25.0587 26.2489 25.2851C24.3558 26.304 22.4375 27.2537 20.5507 28.2789C20.211 28.4613 19.7204 28.9582 19.7833 29.1657C19.9594 29.7569 20.5632 29.4613 20.9721 29.3984C27.3559 28.4865 33.7271 27.4361 40.2053 27.3921L40.199 27.3984ZM35.6328 33.6942C35.8907 33.4174 35.9976 33.3042 36.1045 33.1973C36.658 32.6187 37.2429 32.0715 37.7524 31.4551C38.2115 30.8953 37.9977 30.3922 37.287 30.2727C37.0668 30.2349 36.8341 30.2601 36.6077 30.2915C35.8844 30.3922 35.1674 30.5305 34.4378 30.606C34.0856 30.6438 33.702 30.5746 33.6831 31.0651C33.6579 31.562 34.0102 31.7507 34.4315 31.7759C34.897 31.8073 35.3624 31.7822 35.8278 31.7822C35.2932 32.2287 34.7146 32.6753 34.1925 33.1721C33.8655 33.4803 33.5573 33.8388 33.3435 34.2288C33.0856 34.7005 33.3183 34.9646 33.8529 34.908C34.1925 34.8703 34.5322 34.82 34.8718 34.8074C36.0668 34.7571 37.3184 34.9772 38.331 34.0652C38.3751 34.0275 38.4631 34.0212 38.526 34.0338C39.3436 34.1847 39.9726 33.7696 40.633 33.3985C40.8468 33.279 41.155 33.3357 41.4192 33.3105C41.9286 33.2665 42.4443 33.2476 42.9475 33.1595C43.0859 33.1344 43.1865 32.9205 43.306 32.7948C43.1613 32.669 43.0293 32.4488 42.872 32.4363C42.1802 32.3608 42.1802 31.9897 42.3877 31.474C42.4821 31.2413 42.5953 30.9834 42.5576 30.7507C42.5324 30.562 42.3186 30.2538 42.1676 30.2412C40.0732 30.0777 37.6329 31.5935 37.7901 33.7004H35.6328V33.6942ZM30.8591 39.3358C31.0038 38.688 31.161 38.0716 31.2679 37.449C31.2994 37.254 31.1862 37.0339 31.1421 36.8263C30.9283 36.9207 30.6201 36.9521 30.5195 37.1093C30.1421 37.732 29.7899 38.3798 29.5006 39.0465C29.0855 40.0025 28.7333 40.2415 27.5446 40.1786C27.7899 39.3421 28.054 38.5245 28.2616 37.688C28.3119 37.4804 28.1735 37.2288 28.1232 37.0024C27.9094 37.0968 27.6137 37.1408 27.5005 37.3043C27.0288 38.0024 26.5382 38.7069 26.1923 39.4742C25.8527 40.2163 25.5382 40.8642 24.5948 40.8767C24.469 40.8767 24.3369 40.9648 24.2174 41.0403C23.7583 41.3296 23.7583 41.7258 24.23 41.99C24.4627 42.1158 24.7332 42.185 25.0162 42.2919C24.9407 42.6252 24.8464 42.9271 24.8023 43.2416C24.7395 43.6693 24.6577 44.1095 24.708 44.5309C24.7332 44.7762 24.9596 45.1599 25.1546 45.1976C25.4061 45.2479 25.7898 45.0907 25.9722 44.8894C26.2049 44.6316 26.3244 44.2542 26.4376 43.9146C26.6011 43.4177 26.6955 42.8957 26.8464 42.3925C26.903 42.2101 27.0037 41.9648 27.1483 41.9019C27.6389 41.6881 28.1609 41.5434 28.7459 41.3485C28.6955 41.7573 28.6326 42.0717 28.6264 42.3862C28.6201 42.8139 28.5635 43.3296 29.1169 43.4617C29.6767 43.6001 29.9786 43.1913 30.1232 42.7384C30.2931 42.2227 30.4126 41.6755 30.4818 41.1346C30.5446 40.6189 30.7208 40.2415 31.1988 39.9836C31.4 39.8767 31.5258 39.6251 31.8151 39.2918L30.8465 39.3484L30.8591 39.3358ZM22.4061 32.1721C21.9595 33.0841 21.4501 33.9835 21.079 34.9395C20.6953 35.9143 20.4312 36.9332 20.1544 37.9458C20.0538 38.3106 20.0475 38.7194 20.0601 39.1031C20.0664 39.2729 20.2173 39.5622 20.3368 39.5811C20.5192 39.6063 20.8085 39.4993 20.9092 39.3547C21.1985 38.9207 21.4438 38.449 21.6513 37.971C22.0224 37.1219 22.3494 36.254 22.6891 35.4049C24.2489 35.7005 26.1357 34.6942 26.7144 33.3168C27.1295 32.3168 26.7961 31.2727 25.8653 30.6878C24.8778 30.0651 23.0476 30.172 22.1859 30.9582C21.9847 31.1406 21.8526 31.4928 21.8463 31.7759C21.8463 31.9142 22.2111 32.0526 22.4061 32.1847V32.1721ZM31.551 32.757C30.7962 33.474 30.161 34.0589 29.5446 34.669C29.2239 34.9898 28.8905 35.3231 28.6578 35.7068C28.532 35.9143 28.5257 36.3106 28.6452 36.5118C28.7333 36.6628 29.1232 36.6879 29.3685 36.6628C29.7081 36.6376 30.0289 36.4615 30.3685 36.4364C31.7334 36.3357 33.1108 36.3232 34.4693 36.1659C35.1297 36.0904 35.7712 35.8011 36.4002 35.5558C36.5259 35.5055 36.5574 35.2288 36.6329 35.059C36.4693 35.0338 36.3121 34.9772 36.1486 34.9772C34.551 35.0087 32.9535 35.0527 31.356 35.0904L31.3057 34.8829C31.5698 34.6061 31.8466 34.3357 32.0981 34.0464C32.5321 33.5495 32.985 33.0589 33.356 32.518C33.5007 32.3105 33.5699 31.8954 33.4504 31.713C33.3372 31.5369 32.9409 31.4677 32.6768 31.4865C31.79 31.5369 30.8969 31.6123 30.0163 31.7444C29.7836 31.7759 29.5824 32.0274 29.3622 32.1784C29.5572 32.3671 29.727 32.6815 29.9471 32.7256C30.4063 32.8136 30.8969 32.7507 31.5384 32.7507L31.551 32.757ZM36.9536 42.3233L37.18 42.3799C37.3058 42.1598 37.4694 41.9522 37.5511 41.7132C37.8404 40.9459 38.1612 40.1786 38.3499 39.3861C38.5889 38.3672 39.1487 37.7823 40.1738 37.5433C40.721 37.4112 41.2368 37.1282 41.7525 36.8955C41.9412 36.8074 42.111 36.6691 42.2871 36.5496L42.2053 36.2666L39.4694 36.7571C39.5638 36.5056 39.6958 36.3169 39.6958 36.1282C39.6958 35.8829 39.6015 35.6376 39.5512 35.3923C39.3185 35.4804 39.0229 35.5055 38.8719 35.6628C38.57 35.9961 38.3751 36.4301 38.0732 36.7697C37.9033 36.9647 37.6329 37.1219 37.375 37.1911C36.9662 37.3043 36.3058 37.0087 36.2492 37.6188C36.224 37.8955 36.7964 38.2289 37.1926 38.6314C36.9222 39.7132 36.4064 40.9962 36.9473 42.317L36.9536 42.3233ZM33.4252 40.2352L33.2114 40.0906C33.1108 39.4805 33.5321 38.6754 32.6768 38.361C32.3938 38.254 31.9975 38.4553 31.6579 38.5119L31.8277 38.7069C31.8277 39.0276 31.8529 39.3547 31.8214 39.6692C31.79 39.9145 31.6076 40.1535 31.6264 40.3862C31.6516 40.795 31.6516 41.3736 31.8969 41.5497C32.1862 41.751 32.79 41.7258 33.1422 41.5623C33.6579 41.317 34.073 40.8642 34.4944 40.5245C34.7649 40.8264 35.0165 41.1849 35.3435 41.4365C35.6203 41.6504 35.9096 41.6126 35.9347 41.1409C35.9788 40.2541 36.0605 39.3673 36.0794 38.4867C36.0794 38.2289 35.9284 37.9647 35.8467 37.7068C35.6203 37.8641 35.3498 37.9836 35.1737 38.1848C34.5762 38.8515 34.0039 39.5497 33.4252 40.2352ZM29.1106 32.6249L28.6704 31.8136C28.4628 31.9834 28.2175 32.1344 28.0477 32.3356C27.7458 32.7067 27.4502 33.0904 27.2301 33.5118C26.9408 34.0715 26.6263 34.6502 26.5068 35.2539C26.4313 35.6439 26.6137 36.1471 26.8339 36.5056C27.0666 36.8829 27.5068 36.7446 27.6704 36.3357C27.9219 35.7068 28.205 35.0904 28.4502 34.4552C28.683 33.864 28.8779 33.2665 29.1106 32.6187V32.6249ZM28.1672 30.9079C28.2112 30.9771 28.2804 31.2413 28.4188 31.2853C28.6264 31.3545 28.9911 31.3545 29.0981 31.2287C29.6453 30.5683 30.1421 29.8701 30.6264 29.1594C30.6641 29.1028 30.488 28.7758 30.3811 28.7632C29.6138 28.6563 28.1546 30.0085 28.1672 30.9079Z" stroke="white" stroke-width="2" stroke-miterlimit="10" stroke-linejoin="round" mask="url(#path-2-inside-1_2_345)"/>
<path d="M13.1158 36.9642L13.1158 36.9642L13.1184 36.9677C13.2683 37.1689 13.3346 37.504 13.4021 37.9566L13.4021 37.9566L13.4027 37.9605C13.4433 38.2181 13.4657 38.4847 13.486 38.7684C13.4896 38.8181 13.4931 38.8686 13.4966 38.9196C13.5129 39.1532 13.5299 39.399 13.5568 39.6414C13.5724 39.7885 13.5672 39.8889 13.5557 39.9511C13.5093 39.9416 13.438 39.9195 13.3385 39.8719L13.3383 39.8718C13.0355 39.7274 12.7181 39.4051 12.5782 39.0973L12.5782 39.0973L12.5777 39.0961C12.485 38.8938 12.4277 38.6577 12.3806 38.3867C12.3652 38.2985 12.3496 38.196 12.3332 38.0887C12.3102 37.938 12.2858 37.7779 12.2588 37.6353C12.2651 37.584 12.2699 37.536 12.2739 37.4928C12.2759 37.471 12.2777 37.4514 12.2793 37.4332C12.2831 37.3904 12.2862 37.356 12.2903 37.3211C12.2969 37.2637 12.3035 37.2378 12.3055 37.23C12.3288 37.1938 12.3509 37.1588 12.3722 37.1251C12.4445 37.0109 12.5078 36.9108 12.578 36.822C12.6096 36.782 12.6346 36.7552 12.6528 36.738C12.7016 36.7424 12.7812 36.759 12.878 36.8017C13.01 36.8599 13.0907 36.93 13.1158 36.9642ZM13.5397 40.0071C13.5397 40.007 13.5399 40.0067 13.5403 40.0061L13.5397 40.0071ZM12.6761 36.7183C12.6772 36.7176 12.6777 36.7173 12.6777 36.7173C12.6777 36.7174 12.6772 36.7177 12.6761 36.7183Z" stroke="white" stroke-miterlimit="10" stroke-linejoin="round"/>
<path d="M39.4824 32.3547L40.8095 31.3735C40.8284 32.2981 40.1931 32.3861 39.6334 32.5622L39.4824 32.3547Z" fill="white"/>
<path d="M23.8529 31.8574C24.4441 31.8952 25.0479 31.9455 25.2806 32.587C25.5196 33.2474 25.1548 33.7568 24.6391 34.1153C24.1296 34.4676 23.551 34.7317 22.834 35.128L23.8529 31.8637V31.8574Z" fill="white"/>
</svg>
