<svg width="64" height="64" viewBox="0 0 64 64" fill="none" xmlns="http://www.w3.org/2000/svg">
<circle cx="32" cy="32" r="32" fill="#E63C01"/>
<path d="M26.9584 23.8997C27.0616 23.7892 27.2186 23.7385 27.3667 23.7707C27.8378 23.8767 28.3224 23.8767 28.7936 23.7707L28.7661 23.6488C28.765 23.649 28.7639 23.6493 28.7628 23.6495M26.9584 23.8997L31.2793 19.2382C31.3287 19.3856 31.4498 19.4961 31.6024 19.5284L31.5761 19.6506C31.5762 19.6506 31.5764 19.6506 31.5765 19.6507C32.6921 19.8913 33.51 20.921 33.51 22.1033C33.51 23.4883 32.4142 24.6084 31.0729 24.6084C30.3951 24.6084 29.7643 24.3288 29.2986 23.8199L29.2981 23.8194C29.1904 23.7031 29.0456 23.6365 28.8878 23.6365L28.8837 23.6365C28.8553 23.6365 28.8102 23.6364 28.7628 23.6495M26.9584 23.8997C26.4693 24.434 25.8052 24.7288 25.0918 24.7288C23.6799 24.7288 22.5322 23.5521 22.5297 22.1033L26.9584 23.8997ZM28.7628 23.6495C28.3108 23.7507 27.8461 23.7504 27.3941 23.6488L27.3933 23.6486C27.2012 23.6068 26.9996 23.6723 26.867 23.8144L26.8662 23.8153C26.4004 24.3242 25.7696 24.6038 25.0918 24.6038C23.7513 24.6038 22.656 23.485 22.6547 22.101L28.7628 23.6495ZM30.3311 36.939L30.3312 36.9392C30.7728 37.4296 31.0891 37.7731 31.755 37.7731C32.4206 37.7731 32.7369 37.4298 33.1783 36.9397C33.5191 36.5556 33.9458 36.0827 34.616 35.8612L31.9263 31.3578H24.2025L21.5185 35.8502C22.2071 36.0679 22.6387 36.548 22.987 36.9353L22.9906 36.9392L30.3311 36.939ZM30.3311 36.939L30.3206 36.9275C29.8556 36.4133 29.244 35.7371 28.0846 35.7371C26.9252 35.7371 26.3136 36.4133 25.8486 36.9275L25.8382 36.939L25.838 36.9392M30.3311 36.939L25.838 36.9392M25.838 36.9392C25.3964 37.4296 25.0801 37.7731 24.4143 37.7731M25.838 36.9392L24.4143 37.7731M26.6654 37.7146L26.6652 37.7148L26.6548 37.7263C26.1898 38.2405 25.5782 38.9167 24.4188 38.9167C23.2593 38.9167 22.6477 38.2405 22.1827 37.7263L22.1724 37.7149L26.6654 37.7146ZM26.6654 37.7146C27.107 37.2242 27.4232 36.8807 28.0891 36.8807C28.755 36.8807 29.0712 37.2242 29.5128 37.7146L29.513 37.7148M26.6654 37.7146L29.513 37.7148M29.513 37.7148L29.5234 37.7263C29.9884 38.2405 30.6 38.9167 31.7594 38.9167C32.9189 38.9167 33.5304 38.2405 33.9955 37.7263L34.0059 37.7148L34.0063 37.7143M29.513 37.7148L34.0063 37.7143M34.0063 37.7143C34.404 37.2705 34.6965 36.9518 35.2325 36.8917L40.6612 45.9814M34.0063 37.7143L40.6612 45.9814M24.4143 37.7731C23.7484 37.7731 23.4322 37.4296 22.9906 36.9393L24.4143 37.7731ZM40.6612 45.9814H15.4766L20.9061 36.8904C21.4683 36.9422 21.7651 37.2656 22.1723 37.7148L40.6612 45.9814ZM46.6657 39.9951C46.4516 39.7931 46.1208 39.7931 45.9066 39.9949C45.9065 39.9949 45.9064 39.995 45.9063 39.9951L42.6228 43.0666C42.6227 43.0667 42.6226 43.0668 42.6225 43.0669C42.3913 43.2808 42.3827 43.6391 42.5867 43.8719C42.7873 44.1006 43.1208 44.1194 43.3499 43.9351V45.9814H41.971L32.7238 30.4871L32.7234 30.4864C32.6203 30.3158 32.4408 30.2142 32.244 30.2142H30.2999L31.0211 25.7551C31.0347 25.756 31.0492 25.7566 31.064 25.7566C33.0296 25.7566 34.6215 24.1176 34.6215 22.1079C34.6215 20.5041 33.5817 19.0839 32.1041 18.6201C31.4223 16.9703 29.8363 15.875 28.0667 15.875C26.2969 15.875 24.7062 16.9705 24.0244 18.6253C22.5606 19.0981 21.5298 20.5133 21.5298 22.1079C21.5298 24.0675 23.0423 25.669 24.9355 25.7535L25.6584 30.2188H23.8893C23.6905 30.2188 23.5128 30.3267 23.4109 30.4894L23.4109 30.4894L23.4095 30.4917L14.0932 46.1004C13.9633 46.2057 13.875 46.368 13.875 46.5532C13.875 46.8679 14.1208 47.125 14.4352 47.125H47.0151C47.0717 47.125 47.1232 47.1158 47.1693 47.102H48.6574C48.9718 47.102 49.2176 46.8448 49.2176 46.5302V43.9396C49.3205 44.022 49.442 44.0619 49.5637 44.0619C49.7154 44.0619 49.871 43.9964 49.9806 43.8721L49.9808 43.8719C50.1863 43.6375 50.1699 43.28 49.9459 43.0677L49.9453 43.0671L46.892 40.211H46.8946L46.6657 39.9951ZM26.7955 30.2188L26.0493 25.6134C26.5667 25.4638 27.0508 25.1977 27.4567 24.8292C27.8659 24.8881 28.2853 24.8881 28.6944 24.8292C29.0531 25.1556 29.47 25.4013 29.9185 25.5597L29.1628 30.2188H28.5327V26.9168C28.5327 26.6021 28.2868 26.345 27.9724 26.345C27.658 26.345 27.4122 26.6021 27.4122 26.9168V30.2188H26.7955ZM44.4704 45.9584V42.8948L46.2838 41.1969L48.0971 42.8948V45.9584H44.4704Z" fill="white" stroke="white" stroke-width="0.25"/>
</svg>
