<svg width="64" height="64" viewBox="0 0 64 64" fill="none" xmlns="http://www.w3.org/2000/svg">
<circle cx="32" cy="32" r="32" fill="#E63C01"/>
<path d="M38.9508 17.5567L39.1144 17.2567C36.5032 15.8181 33.4965 15 30.3058 15C20.195 15 12 23.195 12 33.3058C12 43.4166 20.195 51.6116 30.3058 51.6116C40.4166 51.6116 48.6116 43.4166 48.6116 33.3058H48.2775" stroke="white" stroke-width="1.6" stroke-miterlimit="10"/>
<path d="M45.3183 33.306H45.0388C45.0388 41.4465 38.4392 48.0461 30.2987 48.0461C22.1582 48.0461 15.5654 41.4465 15.5654 33.306C15.5654 25.1656 22.1651 18.5659 30.3055 18.5659C32.8758 18.5659 35.2961 19.2272 37.396 20.3863L37.546 20.1067" stroke="white" stroke-width="1.6" stroke-miterlimit="10"/>
<path d="M37.396 20.3863C35.2893 19.2272 32.8758 18.5659 30.3055 18.5659C22.1651 18.5659 15.5654 25.1656 15.5654 33.306C15.5654 41.4465 22.1651 48.0461 30.3055 48.0461C38.446 48.0461 45.0456 41.4465 45.0456 33.306H30.3055L37.396 20.3863V20.3863Z" stroke="white" stroke-width="1.6" stroke-miterlimit="10"/>
<path d="M35.2559 30.3944L42.51 17.8633C48.6119 20.8222 50.0641 27.0128 49.9755 30.3944H35.2627H35.2559Z" stroke="white" stroke-width="1.6" stroke-miterlimit="10"/>
<path d="M44.0576 15C51.8026 18.5657 53.3503 25.7449 53.3503 30.3946" stroke="white" stroke-width="1.6" stroke-miterlimit="10"/>
<path d="M29.8355 25.1789C30.7279 25.1789 31.4514 24.4555 31.4514 23.5631C31.4514 22.6707 30.7279 21.9473 29.8355 21.9473C28.9432 21.9473 28.2197 22.6707 28.2197 23.5631C28.2197 24.4555 28.9432 25.1789 29.8355 25.1789Z" stroke="white" stroke-width="1.6" stroke-miterlimit="10"/>
<path d="M27.7218 31.0286C28.5013 31.0286 29.1331 30.3968 29.1331 29.6173C29.1331 28.8379 28.5013 28.2061 27.7218 28.2061C26.9424 28.2061 26.3105 28.8379 26.3105 29.6173C26.3105 30.3968 26.9424 31.0286 27.7218 31.0286Z" stroke="white" stroke-width="1.6" stroke-miterlimit="10"/>
<path d="M22.2338 28.0017C23.1676 28.0017 23.9246 27.2447 23.9246 26.3109C23.9246 25.3771 23.1676 24.6201 22.2338 24.6201C21.3 24.6201 20.543 25.3771 20.543 26.3109C20.543 27.2447 21.3 28.0017 22.2338 28.0017Z" stroke="white" stroke-width="1.6" stroke-miterlimit="10"/>
<path d="M21.8793 34.8261C23.0052 34.8261 23.9179 33.9134 23.9179 32.7875C23.9179 31.6617 23.0052 30.749 21.8793 30.749C20.7535 30.749 19.8408 31.6617 19.8408 32.7875C19.8408 33.9134 20.7535 34.8261 21.8793 34.8261Z" stroke="white" stroke-width="1.6" stroke-miterlimit="10"/>
<path d="M21.0338 40.3894C21.9262 40.3894 22.6496 39.6659 22.6496 38.7735C22.6496 37.8811 21.9262 37.1577 21.0338 37.1577C20.1414 37.1577 19.418 37.8811 19.418 38.7735C19.418 39.6659 20.1414 40.3894 21.0338 40.3894Z" stroke="white" stroke-width="1.6" stroke-miterlimit="10"/>
<path d="M31.1037 39.1966C31.8831 39.1966 32.515 38.5647 32.515 37.7853C32.515 37.0059 31.8831 36.374 31.1037 36.374C30.3242 36.374 29.6924 37.0059 29.6924 37.7853C29.6924 38.5647 30.3242 39.1966 31.1037 39.1966Z" stroke="white" stroke-width="1.6" stroke-miterlimit="10"/>
<path d="M38.7051 41.378C39.91 41.378 40.8868 40.4013 40.8868 39.1963C40.8868 37.9914 39.91 37.0146 38.7051 37.0146C37.5002 37.0146 36.5234 37.9914 36.5234 39.1963C36.5234 40.4013 37.5002 41.378 38.7051 41.378Z" stroke="white" stroke-width="1.6" stroke-miterlimit="10"/>
<path d="M39.973 28.0017C40.711 28.0017 41.3093 27.4034 41.3093 26.6654C41.3093 25.9274 40.711 25.3291 39.973 25.3291C39.235 25.3291 38.6367 25.9274 38.6367 26.6654C38.6367 27.4034 39.235 28.0017 39.973 28.0017Z" stroke="white" stroke-width="1.6" stroke-miterlimit="10"/>
<path d="M46.0963 28.6355C47.1845 28.6355 48.0667 27.7534 48.0667 26.6652C48.0667 25.577 47.1845 24.6948 46.0963 24.6948C45.0081 24.6948 44.126 25.577 44.126 26.6652C44.126 27.7534 45.0081 28.6355 46.0963 28.6355Z" stroke="white" stroke-width="1.6" stroke-miterlimit="10"/>
</svg>
